<svg width="1430" height="390" viewBox="0 0 1430 390" fill="none" xmlns="http://www.w3.org/2000/svg">
<path d="M528.9 247V142H548.7V247H528.9Z" fill="#BE2A2E"/>
<path d="M569.051 247V172.6H587.651V180.7H590.351C591.651 178.2 593.801 176.05 596.801 174.25C599.801 172.35 603.751 171.4 608.651 171.4C613.951 171.4 618.201 172.45 621.401 174.55C624.601 176.55 627.051 179.2 628.751 182.5H631.451C633.151 179.3 635.551 176.65 638.651 174.55C641.751 172.45 646.151 171.4 651.851 171.4C656.451 171.4 660.601 172.4 664.301 174.4C668.101 176.3 671.101 179.25 673.301 183.25C675.601 187.15 676.751 192.1 676.751 198.1V247H657.851V199.45C657.851 195.35 656.801 192.3 654.701 190.3C652.601 188.2 649.651 187.15 645.851 187.15C641.551 187.15 638.201 188.55 635.801 191.35C633.501 194.05 632.351 197.95 632.351 203.05V247H613.451V199.45C613.451 195.35 612.401 192.3 610.301 190.3C608.201 188.2 605.251 187.15 601.451 187.15C597.151 187.15 593.801 188.55 591.401 191.35C589.101 194.05 587.951 197.95 587.951 203.05V247H569.051Z" fill="#BE2A2E"/>
<path d="M697.078 277V172.6H715.678V181.6H718.378C720.078 178.7 722.728 176.15 726.328 173.95C729.928 171.65 735.078 170.5 741.778 170.5C747.778 170.5 753.328 172 758.428 175C763.528 177.9 767.628 182.2 770.728 187.9C773.828 193.6 775.378 200.5 775.378 208.6V211C775.378 219.1 773.828 226 770.728 231.7C767.628 237.4 763.528 241.75 758.428 244.75C753.328 247.65 747.778 249.1 741.778 249.1C737.278 249.1 733.478 248.55 730.378 247.45C727.378 246.45 724.928 245.15 723.028 243.55C721.228 241.85 719.778 240.15 718.678 238.45H715.978V277H697.078ZM736.078 232.6C741.978 232.6 746.828 230.75 750.628 227.05C754.528 223.25 756.478 217.75 756.478 210.55V209.05C756.478 201.85 754.528 196.4 750.628 192.7C746.728 188.9 741.878 187 736.078 187C730.278 187 725.428 188.9 721.528 192.7C717.628 196.4 715.678 201.85 715.678 209.05V210.55C715.678 217.75 717.628 223.25 721.528 227.05C725.428 230.75 730.278 232.6 736.078 232.6Z" fill="#BE2A2E"/>
<path d="M826.632 249.1C819.232 249.1 812.682 247.55 806.982 244.45C801.382 241.25 796.982 236.8 793.782 231.1C790.682 225.3 789.132 218.5 789.132 210.7V208.9C789.132 201.1 790.682 194.35 793.782 188.65C796.882 182.85 801.232 178.4 806.832 175.3C812.432 172.1 818.932 170.5 826.332 170.5C833.632 170.5 839.982 172.15 845.382 175.45C850.782 178.65 854.982 183.15 857.982 188.95C860.982 194.65 862.482 201.3 862.482 208.9V215.35H808.332C808.532 220.45 810.432 224.6 814.032 227.8C817.632 231 822.032 232.6 827.232 232.6C832.532 232.6 836.432 231.45 838.932 229.15C841.432 226.85 843.332 224.3 844.632 221.5L860.082 229.6C858.682 232.2 856.632 235.05 853.932 238.15C851.332 241.15 847.832 243.75 843.432 245.95C839.032 248.05 833.432 249.1 826.632 249.1ZM808.482 201.25H843.282C842.882 196.95 841.132 193.5 838.032 190.9C835.032 188.3 831.082 187 826.182 187C821.082 187 817.032 188.3 814.032 190.9C811.032 193.5 809.182 196.95 808.482 201.25Z" fill="#BE2A2E"/>
<path d="M879.305 247V172.6H897.905V181H900.605C901.705 178 903.505 175.8 906.005 174.4C908.605 173 911.605 172.3 915.005 172.3H924.005V189.1H914.705C909.905 189.1 905.955 190.4 902.855 193C899.755 195.5 898.205 199.4 898.205 204.7V247H879.305Z" fill="#BE2A2E"/>
<path d="M960.12 249.1C954.82 249.1 950.07 248.2 945.87 246.4C941.67 244.5 938.32 241.8 935.82 238.3C933.42 234.7 932.22 230.35 932.22 225.25C932.22 220.15 933.42 215.9 935.82 212.5C938.32 209 941.72 206.4 946.02 204.7C950.42 202.9 955.42 202 961.02 202H981.42V197.8C981.42 194.3 980.32 191.45 978.12 189.25C975.92 186.95 972.42 185.8 967.62 185.8C962.92 185.8 959.42 186.9 957.12 189.1C954.82 191.2 953.32 193.95 952.62 197.35L935.22 191.5C936.42 187.7 938.32 184.25 940.92 181.15C943.62 177.95 947.17 175.4 951.57 173.5C956.07 171.5 961.52 170.5 967.92 170.5C977.72 170.5 985.47 172.95 991.17 177.85C996.87 182.75 999.72 189.85 999.72 199.15V226.9C999.72 229.9 1001.12 231.4 1003.92 231.4H1009.92V247H997.32C993.62 247 990.57 246.1 988.17 244.3C985.77 242.5 984.57 240.1 984.57 237.1V236.95H981.72C981.32 238.15 980.42 239.75 979.02 241.75C977.62 243.65 975.42 245.35 972.42 246.85C969.42 248.35 965.32 249.1 960.12 249.1ZM963.42 233.8C968.72 233.8 973.02 232.35 976.32 229.45C979.72 226.45 981.42 222.5 981.42 217.6V216.1H962.37C958.87 216.1 956.12 216.85 954.12 218.35C952.12 219.85 951.12 221.95 951.12 224.65C951.12 227.35 952.17 229.55 954.27 231.25C956.37 232.95 959.42 233.8 963.42 233.8Z" fill="#BE2A2E"/>
<path d="M1046.82 247C1041.92 247 1037.92 245.5 1034.82 242.5C1031.82 239.4 1030.32 235.3 1030.32 230.2V188.2H1011.72V172.6H1030.32V149.5H1049.22V172.6H1069.62V188.2H1049.22V226.9C1049.22 229.9 1050.62 231.4 1053.42 231.4H1067.82V247H1046.82Z" fill="#BE2A2E"/>
<path d="M1119.49 249.1C1112.09 249.1 1105.44 247.6 1099.54 244.6C1093.64 241.6 1088.99 237.25 1085.59 231.55C1082.19 225.85 1080.49 219 1080.49 211V208.6C1080.49 200.6 1082.19 193.75 1085.59 188.05C1088.99 182.35 1093.64 178 1099.54 175C1105.44 172 1112.09 170.5 1119.49 170.5C1126.89 170.5 1133.54 172 1139.44 175C1145.34 178 1149.99 182.35 1153.39 188.05C1156.79 193.75 1158.49 200.6 1158.49 208.6V211C1158.49 219 1156.79 225.85 1153.39 231.55C1149.99 237.25 1145.34 241.6 1139.44 244.6C1133.54 247.6 1126.89 249.1 1119.49 249.1ZM1119.49 232.3C1125.29 232.3 1130.09 230.45 1133.89 226.75C1137.69 222.95 1139.59 217.55 1139.59 210.55V209.05C1139.59 202.05 1137.69 196.7 1133.89 193C1130.19 189.2 1125.39 187.3 1119.49 187.3C1113.69 187.3 1108.89 189.2 1105.09 193C1101.29 196.7 1099.39 202.05 1099.39 209.05V210.55C1099.39 217.55 1101.29 222.95 1105.09 226.75C1108.89 230.45 1113.69 232.3 1119.49 232.3Z" fill="#BE2A2E"/>
<path d="M1175.94 247V172.6H1194.54V181H1197.24C1198.34 178 1200.14 175.8 1202.64 174.4C1205.24 173 1208.24 172.3 1211.64 172.3H1220.64V189.1H1211.34C1206.54 189.1 1202.59 190.4 1199.49 193C1196.39 195.5 1194.84 199.4 1194.84 204.7V247H1175.94Z" fill="#BE2A2E"/>
<path d="M1235.25 249.1C1231.25 249.1 1227.85 247.8 1225.05 245.2C1222.35 242.5 1221 239.05 1221 234.85C1221 230.65 1222.35 227.25 1225.05 224.65C1227.85 221.95 1231.25 220.6 1235.25 220.6C1239.35 220.6 1242.75 221.95 1245.45 224.65C1248.15 227.25 1249.5 230.65 1249.5 234.85C1249.5 239.05 1248.15 242.5 1245.45 245.2C1242.75 247.8 1239.35 249.1 1235.25 249.1Z" fill="#BE2A2E"/>
<path d="M1302.15 249.1C1294.95 249.1 1288.4 247.6 1282.5 244.6C1276.7 241.6 1272.1 237.25 1268.7 231.55C1265.3 225.85 1263.6 218.95 1263.6 210.85V208.75C1263.6 200.65 1265.3 193.75 1268.7 188.05C1272.1 182.35 1276.7 178 1282.5 175C1288.4 172 1294.95 170.5 1302.15 170.5C1309.25 170.5 1315.35 171.75 1320.45 174.25C1325.55 176.75 1329.65 180.2 1332.75 184.6C1335.95 188.9 1338.05 193.8 1339.05 199.3L1320.75 203.2C1320.35 200.2 1319.45 197.5 1318.05 195.1C1316.65 192.7 1314.65 190.8 1312.05 189.4C1309.55 188 1306.4 187.3 1302.6 187.3C1298.8 187.3 1295.35 188.15 1292.25 189.85C1289.25 191.45 1286.85 193.9 1285.05 197.2C1283.35 200.4 1282.5 204.35 1282.5 209.05V210.55C1282.5 215.25 1283.35 219.25 1285.05 222.55C1286.85 225.75 1289.25 228.2 1292.25 229.9C1295.35 231.5 1298.8 232.3 1302.6 232.3C1308.3 232.3 1312.6 230.85 1315.5 227.95C1318.5 224.95 1320.4 221.05 1321.2 216.25L1339.5 220.6C1338.2 225.9 1335.95 230.75 1332.75 235.15C1329.65 239.45 1325.55 242.85 1320.45 245.35C1315.35 247.85 1309.25 249.1 1302.15 249.1Z" fill="#BE2A2E"/>
<path d="M1390.49 249.1C1383.09 249.1 1376.44 247.6 1370.54 244.6C1364.64 241.6 1359.99 237.25 1356.59 231.55C1353.19 225.85 1351.49 219 1351.49 211V208.6C1351.49 200.6 1353.19 193.75 1356.59 188.05C1359.99 182.35 1364.64 178 1370.54 175C1376.44 172 1383.09 170.5 1390.49 170.5C1397.89 170.5 1404.54 172 1410.44 175C1416.34 178 1420.99 182.35 1424.39 188.05C1427.79 193.75 1429.49 200.6 1429.49 208.6V211C1429.49 219 1427.79 225.85 1424.39 231.55C1420.99 237.25 1416.34 241.6 1410.44 244.6C1404.54 247.6 1397.89 249.1 1390.49 249.1ZM1390.49 232.3C1396.29 232.3 1401.09 230.45 1404.89 226.75C1408.69 222.95 1410.59 217.55 1410.59 210.55V209.05C1410.59 202.05 1408.69 196.7 1404.89 193C1401.19 189.2 1396.39 187.3 1390.49 187.3C1384.69 187.3 1379.89 189.2 1376.09 193C1372.29 196.7 1370.39 202.05 1370.39 209.05V210.55C1370.39 217.55 1372.29 222.95 1376.09 226.75C1379.89 230.45 1384.69 232.3 1390.49 232.3Z" fill="#BE2A2E"/>
<path d="M246.87 102.98C246.23 102.75 245.63 102.52 245.03 102.34C244.16 101.97 243.33 101.7 242.45 101.47C241.53 101.15 240.61 100.83 239.69 100.55C239.32 100.41 238.95 100.32 238.54 100.23C236.52 99.59 234.35 98.94 232.19 98.39C209.97 92.68 180.52 91.17 150.47 107.41C150.42 107.41 150.38 107.46 150.33 107.5C148.17 108.47 146.1 109.57 144.03 110.67C113.94 127.37 92.63 155.72 84.35 188.16C83.15 192.81 82.23 197.64 81.59 202.47C83.57 194.79 86.24 187.38 89.5 180.25C104.09 148.64 130.77 125.04 160.91 114.41C175.96 109.07 191.74 106.86 206.88 107.74C222.11 108.57 236.7 112.48 249.86 118.83L273.33 51.1C259.52 65.29 250.27 83.42 246.87 102.98ZM341.97 67.09C306.22 26 253.53 0 194.91 0C87.43 0 0 87.47 0 194.96C0 290.44 68.97 370.13 159.71 386.74C171.12 388.81 182.9 389.91 194.91 389.91C302.44 389.91 389.91 302.44 389.91 194.96C389.92 146.09 371.84 101.37 341.97 67.09ZM26.83 194.95C26.83 102.28 102.24 26.87 194.91 26.87C208.3 26.87 221.32 28.48 233.84 31.43C235.54 31.89 237.24 32.3 238.95 32.76C226.71 31.98 214.47 32.35 202.46 33.96C187.97 35.85 173.84 39.48 160.4 44.59C155.66 53.93 153.13 63.82 152.53 73.72C152.44 75.42 152.39 77.12 152.39 78.78C151.93 77.4 151.52 76.02 151.15 74.64C148.94 66.4 148.25 57.8 149.26 49.2C143.74 51.73 138.4 54.49 133.2 57.48C119.26 65.58 106.56 75.43 95.42 86.65C94.68 99.12 97.03 111.04 101.77 121.76C95.01 114.4 89.9 105.47 87 95.72C86.82 95.9 86.68 96.09 86.54 96.23C84.24 98.94 82.03 101.66 79.91 104.47C65.65 123.15 55.39 144.46 49.63 166.45C43.92 188.49 42.54 211.4 45.67 233.31C48.75 255.21 56.16 276.15 67.07 294.55C75.4 308.58 85.75 321.19 97.53 331.87C54.81 301.33 26.83 251.37 26.83 194.95ZM194.92 363.04C175.6 363.04 156.96 359.68 139.61 353.65C131.05 347.67 123.09 340.9 116.05 333.4C102.8 319.32 92.63 302.8 86.05 285.32C84.21 280.4 82.69 275.47 81.45 270.41C78.14 257.48 76.76 244.28 77.26 231.35C77.67 221.5 79.1 211.79 81.59 202.45C83.57 194.77 86.24 187.36 89.5 180.23C104.09 148.62 130.77 125.02 160.91 114.39C175.96 109.05 191.74 106.84 206.88 107.72C222.11 108.55 236.7 112.46 249.86 118.81L273.33 51.08L274.71 47.03C275.31 47.35 275.86 47.63 276.41 48C327.99 76.71 363.05 131.83 363.05 194.96C363.05 287.62 287.63 363.04 194.92 363.04ZM246.87 102.98C246.23 102.75 245.63 102.52 245.03 102.34C244.16 101.97 243.33 101.7 242.45 101.47C241.53 101.15 240.61 100.83 239.69 100.55C239.32 100.41 238.95 100.32 238.54 100.23C236.52 99.59 234.35 98.94 232.19 98.39C209.97 92.68 180.52 91.17 150.47 107.41C150.42 107.41 150.38 107.46 150.33 107.5C148.17 108.47 146.1 109.57 144.03 110.67C113.94 127.37 92.63 155.72 84.35 188.16C83.15 192.81 82.23 197.64 81.59 202.47C83.57 194.79 86.24 187.38 89.5 180.25C104.09 148.64 130.77 125.04 160.91 114.41C175.96 109.07 191.74 106.86 206.88 107.74C222.11 108.57 236.7 112.48 249.86 118.83L273.33 51.1C259.52 65.29 250.27 83.42 246.87 102.98Z" fill="url(#paint0_linear_4_62)"/>
<path d="M296.97 312.65C270.47 310.99 245.21 300.09 221.14 285.78C219.67 284.91 218.7 282.97 217.92 281.36C203.15 249.15 180.1 227.62 149.96 215.65C145.22 198.17 156.63 178.56 156.63 178.56C127.46 186.47 121.52 204.88 120.88 207.13C127.97 161.62 158.43 131.21 201.45 127.07C231.91 124.17 271.94 139.31 277.51 165.17C266.1 167.84 254.64 170.6 243.14 173.31C243.19 173.72 243.19 174.14 243.19 174.55H287.73C296.06 196.31 289.85 233.31 288.93 234.5C279.5 182.55 253.87 209.19 224.01 194.52C228.01 216.47 241.45 225.9 260.59 228.34C272.14 229.81 276.56 234.92 278.77 247.3C282.62 269.26 290.53 290.48 296.97 312.65Z" fill="#C6A06A"/>
<path d="M296.96 312.65C295.67 312.56 294.38 312.47 293.1 312.33C268.02 309.94 244.05 299.4 221.14 285.78C219.67 284.9 218.7 282.97 217.92 281.36C204.62 252.33 184.56 231.94 158.66 219.52C155.85 218.09 152.95 216.85 149.96 215.66C145.22 198.18 156.63 178.57 156.63 178.57C127.46 186.48 121.52 204.89 120.88 207.14C127.97 161.63 158.43 131.22 201.45 127.08C230.53 124.32 268.35 137.98 276.54 161.77C276.95 162.87 277.28 164.02 277.51 165.17C266.1 167.84 254.64 170.6 243.14 173.31C243.19 173.72 243.19 174.14 243.19 174.55H287.73C296.06 196.31 289.85 233.31 288.93 234.5C279.5 182.55 253.87 209.19 224.01 194.52C228.01 216.47 241.45 225.9 260.59 228.34C272.14 229.81 276.56 234.92 278.77 247.3C282.5 268.37 289.95 288.76 296.21 310.01C296.46 310.9 296.69 311.78 296.96 312.65Z" fill="url(#paint1_linear_4_62)"/>
<path d="M341.97 67.09C315.56 52.41 285.14 44.04 252.75 44.04C215.8 44.04 181.38 54.95 152.53 73.72C152.07 74 151.61 74.32 151.15 74.64C101.5 107.59 68.79 163.95 68.79 228C68.79 295.64 105.32 354.76 159.71 386.74C171.12 388.81 182.9 389.91 194.91 389.91C302.44 389.91 389.91 302.44 389.91 194.96C389.92 146.09 371.84 101.37 341.97 67.09ZM194.92 363.04C175.6 363.04 156.96 359.68 139.61 353.65C131.05 347.67 123.09 340.9 116.05 333.4C102.8 319.32 92.63 302.8 86.05 285.32C84.21 280.4 82.69 275.47 81.45 270.41C78.14 257.48 76.76 244.28 77.26 231.35C77.67 221.5 79.1 211.79 81.59 202.45C83.57 194.77 86.24 187.36 89.5 180.23C104.09 148.62 130.77 125.02 160.91 114.39C175.96 109.05 191.74 106.84 206.88 107.72C222.11 108.55 236.7 112.46 249.86 118.81L273.33 51.08L274.71 47.03C275.31 47.35 275.86 47.63 276.41 48C327.99 76.71 363.05 131.83 363.05 194.96C363.05 287.62 287.63 363.04 194.92 363.04Z" fill="url(#paint2_linear_4_62)"/>
<path d="M296.18 310.03C295.17 310.81 294.16 311.59 293.1 312.33C268.02 309.94 244.05 299.4 221.14 285.78C219.67 284.9 218.7 282.97 217.92 281.36C204.62 252.33 184.56 231.94 158.66 219.52C168.51 182.34 202.37 154.92 242.63 154.92C254.68 154.92 266.14 157.36 276.54 161.78C276.95 162.88 277.28 164.03 277.51 165.18C266.1 167.85 254.64 170.61 243.14 173.32C243.19 173.73 243.19 174.15 243.19 174.56H287.73C296.06 196.32 289.85 233.32 288.93 234.51C279.5 182.56 253.87 209.2 224.01 194.53C228.01 216.48 241.45 225.91 260.59 228.35C272.14 229.82 276.56 234.93 278.77 247.31C282.47 268.39 289.92 288.77 296.18 310.03Z" fill="url(#paint3_linear_4_62)"/>
<defs>
<linearGradient id="paint0_linear_4_62" x1="0" y1="194.95" x2="1429.49" y2="194.95" gradientUnits="userSpaceOnUse">
<stop stop-color="#ED3439"/>
<stop offset="1" stop-color="#E52E2E"/>
</linearGradient>
<linearGradient id="paint1_linear_4_62" x1="153.843" y1="288.113" x2="570.625" y2="-400.444" gradientUnits="userSpaceOnUse">
<stop stop-color="#EDCA97"/>
<stop offset="1" stop-color="#A37D4A"/>
</linearGradient>
<linearGradient id="paint2_linear_4_62" x1="212.963" y1="227.349" x2="915.439" y2="-511.383" gradientUnits="userSpaceOnUse">
<stop stop-color="#CB2027"/>
<stop offset="1" stop-color="#89191C"/>
</linearGradient>
<linearGradient id="paint3_linear_4_62" x1="206.63" y1="191.1" x2="315.36" y2="275.32" gradientUnits="userSpaceOnUse">
<stop stop-color="#A37D4A"/>
<stop offset="0.56" stop-color="#C6A06A"/>
</linearGradient>
</defs>
</svg>
