<svg width="1429" height="390" viewBox="0 0 1429 390" fill="none" xmlns="http://www.w3.org/2000/svg">
<path d="M527.9 247V142H547.7V247H527.9Z" fill="#E6E6E6"/>
<path d="M568.051 247V172.6H586.651V180.7H589.351C590.651 178.2 592.801 176.05 595.801 174.25C598.801 172.35 602.751 171.4 607.651 171.4C612.951 171.4 617.201 172.45 620.401 174.55C623.601 176.55 626.051 179.2 627.751 182.5H630.451C632.151 179.3 634.551 176.65 637.651 174.55C640.751 172.45 645.151 171.4 650.851 171.4C655.451 171.4 659.601 172.4 663.301 174.4C667.101 176.3 670.101 179.25 672.301 183.25C674.601 187.15 675.751 192.1 675.751 198.1V247H656.851V199.45C656.851 195.35 655.801 192.3 653.701 190.3C651.601 188.2 648.651 187.15 644.851 187.15C640.551 187.15 637.201 188.55 634.801 191.35C632.501 194.05 631.351 197.95 631.351 203.05V247H612.451V199.45C612.451 195.35 611.401 192.3 609.301 190.3C607.201 188.2 604.251 187.15 600.451 187.15C596.151 187.15 592.801 188.55 590.401 191.35C588.101 194.05 586.951 197.95 586.951 203.05V247H568.051Z" fill="#E6E6E6"/>
<path d="M696.078 277V172.6H714.678V181.6H717.378C719.078 178.7 721.728 176.15 725.328 173.95C728.928 171.65 734.078 170.5 740.778 170.5C746.778 170.5 752.328 172 757.428 175C762.528 177.9 766.628 182.2 769.728 187.9C772.828 193.6 774.378 200.5 774.378 208.6V211C774.378 219.1 772.828 226 769.728 231.7C766.628 237.4 762.528 241.75 757.428 244.75C752.328 247.65 746.778 249.1 740.778 249.1C736.278 249.1 732.478 248.55 729.378 247.45C726.378 246.45 723.928 245.15 722.028 243.55C720.228 241.85 718.778 240.15 717.678 238.45H714.978V277H696.078ZM735.078 232.6C740.978 232.6 745.828 230.75 749.628 227.05C753.528 223.25 755.478 217.75 755.478 210.55V209.05C755.478 201.85 753.528 196.4 749.628 192.7C745.728 188.9 740.878 187 735.078 187C729.278 187 724.428 188.9 720.528 192.7C716.628 196.4 714.678 201.85 714.678 209.05V210.55C714.678 217.75 716.628 223.25 720.528 227.05C724.428 230.75 729.278 232.6 735.078 232.6Z" fill="#E6E6E6"/>
<path d="M825.632 249.1C818.232 249.1 811.682 247.55 805.982 244.45C800.382 241.25 795.982 236.8 792.782 231.1C789.682 225.3 788.132 218.5 788.132 210.7V208.9C788.132 201.1 789.682 194.35 792.782 188.65C795.882 182.85 800.232 178.4 805.832 175.3C811.432 172.1 817.932 170.5 825.332 170.5C832.632 170.5 838.982 172.15 844.382 175.45C849.782 178.65 853.982 183.15 856.982 188.95C859.982 194.65 861.482 201.3 861.482 208.9V215.35H807.332C807.532 220.45 809.432 224.6 813.032 227.8C816.632 231 821.032 232.6 826.232 232.6C831.532 232.6 835.432 231.45 837.932 229.15C840.432 226.85 842.332 224.3 843.632 221.5L859.082 229.6C857.682 232.2 855.632 235.05 852.932 238.15C850.332 241.15 846.832 243.75 842.432 245.95C838.032 248.05 832.432 249.1 825.632 249.1ZM807.482 201.25H842.282C841.882 196.95 840.132 193.5 837.032 190.9C834.032 188.3 830.082 187 825.182 187C820.082 187 816.032 188.3 813.032 190.9C810.032 193.5 808.182 196.95 807.482 201.25Z" fill="#E6E6E6"/>
<path d="M878.305 247V172.6H896.905V181H899.605C900.705 178 902.505 175.8 905.005 174.4C907.605 173 910.605 172.3 914.005 172.3H923.005V189.1H913.705C908.905 189.1 904.955 190.4 901.855 193C898.755 195.5 897.205 199.4 897.205 204.7V247H878.305Z" fill="#E6E6E6"/>
<path d="M959.12 249.1C953.82 249.1 949.07 248.2 944.87 246.4C940.67 244.5 937.32 241.8 934.82 238.3C932.42 234.7 931.22 230.35 931.22 225.25C931.22 220.15 932.42 215.9 934.82 212.5C937.32 209 940.72 206.4 945.02 204.7C949.42 202.9 954.42 202 960.02 202H980.42V197.8C980.42 194.3 979.32 191.45 977.12 189.25C974.92 186.95 971.42 185.8 966.62 185.8C961.92 185.8 958.42 186.9 956.12 189.1C953.82 191.2 952.32 193.95 951.62 197.35L934.22 191.5C935.42 187.7 937.32 184.25 939.92 181.15C942.62 177.95 946.17 175.4 950.57 173.5C955.07 171.5 960.52 170.5 966.92 170.5C976.72 170.5 984.47 172.95 990.17 177.85C995.87 182.75 998.72 189.85 998.72 199.15V226.9C998.72 229.9 1000.12 231.4 1002.92 231.4H1008.92V247H996.32C992.62 247 989.57 246.1 987.17 244.3C984.77 242.5 983.57 240.1 983.57 237.1V236.95H980.72C980.32 238.15 979.42 239.75 978.02 241.75C976.62 243.65 974.42 245.35 971.42 246.85C968.42 248.35 964.32 249.1 959.12 249.1ZM962.42 233.8C967.72 233.8 972.02 232.35 975.32 229.45C978.72 226.45 980.42 222.5 980.42 217.6V216.1H961.37C957.87 216.1 955.12 216.85 953.12 218.35C951.12 219.85 950.12 221.95 950.12 224.65C950.12 227.35 951.17 229.55 953.27 231.25C955.37 232.95 958.42 233.8 962.42 233.8Z" fill="#E6E6E6"/>
<path d="M1045.82 247C1040.92 247 1036.92 245.5 1033.82 242.5C1030.82 239.4 1029.32 235.3 1029.32 230.2V188.2H1010.72V172.6H1029.32V149.5H1048.22V172.6H1068.62V188.2H1048.22V226.9C1048.22 229.9 1049.62 231.4 1052.42 231.4H1066.82V247H1045.82Z" fill="#E6E6E6"/>
<path d="M1118.49 249.1C1111.09 249.1 1104.44 247.6 1098.54 244.6C1092.64 241.6 1087.99 237.25 1084.59 231.55C1081.19 225.85 1079.49 219 1079.49 211V208.6C1079.49 200.6 1081.19 193.75 1084.59 188.05C1087.99 182.35 1092.64 178 1098.54 175C1104.44 172 1111.09 170.5 1118.49 170.5C1125.89 170.5 1132.54 172 1138.44 175C1144.34 178 1148.99 182.35 1152.39 188.05C1155.79 193.75 1157.49 200.6 1157.49 208.6V211C1157.49 219 1155.79 225.85 1152.39 231.55C1148.99 237.25 1144.34 241.6 1138.44 244.6C1132.54 247.6 1125.89 249.1 1118.49 249.1ZM1118.49 232.3C1124.29 232.3 1129.09 230.45 1132.89 226.75C1136.69 222.95 1138.59 217.55 1138.59 210.55V209.05C1138.59 202.05 1136.69 196.7 1132.89 193C1129.19 189.2 1124.39 187.3 1118.49 187.3C1112.69 187.3 1107.89 189.2 1104.09 193C1100.29 196.7 1098.39 202.05 1098.39 209.05V210.55C1098.39 217.55 1100.29 222.95 1104.09 226.75C1107.89 230.45 1112.69 232.3 1118.49 232.3Z" fill="#E6E6E6"/>
<path d="M1174.94 247V172.6H1193.54V181H1196.24C1197.34 178 1199.14 175.8 1201.64 174.4C1204.24 173 1207.24 172.3 1210.64 172.3H1219.64V189.1H1210.34C1205.54 189.1 1201.59 190.4 1198.49 193C1195.39 195.5 1193.84 199.4 1193.84 204.7V247H1174.94Z" fill="#E6E6E6"/>
<path d="M1234.25 249.1C1230.25 249.1 1226.85 247.8 1224.05 245.2C1221.35 242.5 1220 239.05 1220 234.85C1220 230.65 1221.35 227.25 1224.05 224.65C1226.85 221.95 1230.25 220.6 1234.25 220.6C1238.35 220.6 1241.75 221.95 1244.45 224.65C1247.15 227.25 1248.5 230.65 1248.5 234.85C1248.5 239.05 1247.15 242.5 1244.45 245.2C1241.75 247.8 1238.35 249.1 1234.25 249.1Z" fill="#E6E6E6"/>
<path d="M1301.15 249.1C1293.95 249.1 1287.4 247.6 1281.5 244.6C1275.7 241.6 1271.1 237.25 1267.7 231.55C1264.3 225.85 1262.6 218.95 1262.6 210.85V208.75C1262.6 200.65 1264.3 193.75 1267.7 188.05C1271.1 182.35 1275.7 178 1281.5 175C1287.4 172 1293.95 170.5 1301.15 170.5C1308.25 170.5 1314.35 171.75 1319.45 174.25C1324.55 176.75 1328.65 180.2 1331.75 184.6C1334.95 188.9 1337.05 193.8 1338.05 199.3L1319.75 203.2C1319.35 200.2 1318.45 197.5 1317.05 195.1C1315.65 192.7 1313.65 190.8 1311.05 189.4C1308.55 188 1305.4 187.3 1301.6 187.3C1297.8 187.3 1294.35 188.15 1291.25 189.85C1288.25 191.45 1285.85 193.9 1284.05 197.2C1282.35 200.4 1281.5 204.35 1281.5 209.05V210.55C1281.5 215.25 1282.35 219.25 1284.05 222.55C1285.85 225.75 1288.25 228.2 1291.25 229.9C1294.35 231.5 1297.8 232.3 1301.6 232.3C1307.3 232.3 1311.6 230.85 1314.5 227.95C1317.5 224.95 1319.4 221.05 1320.2 216.25L1338.5 220.6C1337.2 225.9 1334.95 230.75 1331.75 235.15C1328.65 239.45 1324.55 242.85 1319.45 245.35C1314.35 247.85 1308.25 249.1 1301.15 249.1Z" fill="#E6E6E6"/>
<path d="M1389.49 249.1C1382.09 249.1 1375.44 247.6 1369.54 244.6C1363.64 241.6 1358.99 237.25 1355.59 231.55C1352.19 225.85 1350.49 219 1350.49 211V208.6C1350.49 200.6 1352.19 193.75 1355.59 188.05C1358.99 182.35 1363.64 178 1369.54 175C1375.44 172 1382.09 170.5 1389.49 170.5C1396.89 170.5 1403.54 172 1409.44 175C1415.34 178 1419.99 182.35 1423.39 188.05C1426.79 193.75 1428.49 200.6 1428.49 208.6V211C1428.49 219 1426.79 225.85 1423.39 231.55C1419.99 237.25 1415.34 241.6 1409.44 244.6C1403.54 247.6 1396.89 249.1 1389.49 249.1ZM1389.49 232.3C1395.29 232.3 1400.09 230.45 1403.89 226.75C1407.69 222.95 1409.59 217.55 1409.59 210.55V209.05C1409.59 202.05 1407.69 196.7 1403.89 193C1400.19 189.2 1395.39 187.3 1389.49 187.3C1383.69 187.3 1378.89 189.2 1375.09 193C1371.29 196.7 1369.39 202.05 1369.39 209.05V210.55C1369.39 217.55 1371.29 222.95 1375.09 226.75C1378.89 230.45 1383.69 232.3 1389.49 232.3Z" fill="#E6E6E6"/>
<path d="M246.87 102.98C246.23 102.75 245.63 102.52 245.03 102.34C244.16 101.97 243.33 101.7 242.45 101.47C241.53 101.15 240.61 100.83 239.69 100.55C239.32 100.41 238.95 100.32 238.54 100.23C236.52 99.59 234.35 98.94 232.19 98.39C209.97 92.68 180.52 91.17 150.47 107.41C150.42 107.41 150.38 107.46 150.33 107.5C148.17 108.47 146.1 109.57 144.03 110.67C113.94 127.37 92.63 155.72 84.35 188.16C83.15 192.81 82.23 197.64 81.59 202.47C83.57 194.79 86.24 187.38 89.5 180.25C104.09 148.64 130.77 125.04 160.91 114.41C175.96 109.07 191.74 106.86 206.88 107.74C222.11 108.57 236.7 112.48 249.86 118.83L273.33 51.1C259.52 65.29 250.27 83.42 246.87 102.98ZM341.97 67.09C306.22 26 253.53 0 194.91 0C87.43 0 0 87.47 0 194.96C0 290.44 68.97 370.13 159.71 386.74C171.12 388.81 182.9 389.91 194.91 389.91C302.44 389.91 389.91 302.44 389.91 194.96C389.92 146.09 371.84 101.37 341.97 67.09ZM26.83 194.95C26.83 102.28 102.24 26.87 194.91 26.87C208.3 26.87 221.32 28.48 233.84 31.43C235.54 31.89 237.24 32.3 238.95 32.76C226.71 31.98 214.47 32.35 202.46 33.96C187.97 35.85 173.84 39.48 160.4 44.59C155.66 53.93 153.13 63.82 152.53 73.72C152.44 75.42 152.39 77.12 152.39 78.78C151.93 77.4 151.52 76.02 151.15 74.64C148.94 66.4 148.25 57.8 149.26 49.2C143.74 51.73 138.4 54.49 133.2 57.48C119.26 65.58 106.56 75.43 95.42 86.65C94.68 99.12 97.03 111.04 101.77 121.76C95.01 114.4 89.9 105.47 87 95.72C86.82 95.9 86.68 96.09 86.54 96.23C84.24 98.94 82.03 101.66 79.91 104.47C65.65 123.15 55.39 144.46 49.63 166.45C43.92 188.49 42.54 211.4 45.67 233.31C48.75 255.21 56.16 276.15 67.07 294.55C75.4 308.58 85.75 321.19 97.53 331.87C54.81 301.33 26.83 251.37 26.83 194.95ZM194.92 363.04C175.6 363.04 156.96 359.68 139.61 353.65C131.05 347.67 123.09 340.9 116.05 333.41C102.8 319.33 92.63 302.81 86.05 285.33C84.21 280.41 82.69 275.48 81.45 270.42C78.14 257.49 76.76 244.29 77.26 231.36C77.67 221.51 79.1 211.8 81.59 202.46C83.57 194.78 86.24 187.37 89.5 180.24C104.09 148.63 130.77 125.03 160.91 114.4C175.96 109.06 191.74 106.85 206.88 107.73C222.11 108.56 236.7 112.47 249.86 118.82L273.33 51.09L274.71 47.04C275.31 47.36 275.86 47.64 276.41 48.01C327.99 76.72 363.05 131.84 363.05 194.97C363.05 287.62 287.63 363.04 194.92 363.04ZM246.87 102.98C246.23 102.75 245.63 102.52 245.03 102.34C244.16 101.97 243.33 101.7 242.45 101.47C241.53 101.15 240.61 100.83 239.69 100.55C239.32 100.41 238.95 100.32 238.54 100.23C236.52 99.59 234.35 98.94 232.19 98.39C209.97 92.68 180.52 91.17 150.47 107.41C150.42 107.41 150.38 107.46 150.33 107.5C148.17 108.47 146.1 109.57 144.03 110.67C113.94 127.37 92.63 155.72 84.35 188.16C83.15 192.81 82.23 197.64 81.59 202.47C83.57 194.79 86.24 187.38 89.5 180.25C104.09 148.64 130.77 125.04 160.91 114.41C175.96 109.07 191.74 106.86 206.88 107.74C222.11 108.57 236.7 112.48 249.86 118.83L273.33 51.1C259.52 65.29 250.27 83.42 246.87 102.98Z" fill="#E6E6E6"/>
<path d="M296.97 312.65C270.47 310.99 245.21 300.09 221.14 285.78C219.67 284.91 218.7 282.97 217.92 281.36C203.15 249.15 180.1 227.62 149.96 215.65C145.22 198.17 156.63 178.56 156.63 178.56C127.46 186.47 121.52 204.88 120.88 207.13C127.97 161.62 158.43 131.21 201.45 127.07C231.91 124.17 271.94 139.31 277.51 165.17C266.1 167.84 254.64 170.6 243.14 173.31C243.19 173.72 243.19 174.14 243.19 174.55H287.73C296.06 196.31 289.85 233.31 288.93 234.5C279.5 182.55 253.87 209.19 224.01 194.52C228.01 216.47 241.45 225.9 260.59 228.34C272.14 229.81 276.56 234.92 278.77 247.3C282.62 269.26 290.53 290.48 296.97 312.65Z" fill="#E6E6E6"/>
<path d="M296.96 312.65C295.67 312.56 294.38 312.47 293.1 312.33C268.02 309.94 244.05 299.4 221.14 285.78C219.67 284.9 218.7 282.97 217.92 281.36C204.62 252.33 184.56 231.94 158.66 219.52C155.85 218.09 152.95 216.85 149.96 215.66C145.22 198.18 156.63 178.57 156.63 178.57C127.46 186.48 121.52 204.89 120.88 207.14C127.97 161.63 158.43 131.22 201.45 127.08C230.53 124.32 268.35 137.98 276.54 161.77C276.95 162.87 277.28 164.02 277.51 165.17C266.1 167.84 254.64 170.6 243.14 173.31C243.19 173.72 243.19 174.14 243.19 174.55H287.73C296.06 196.31 289.85 233.31 288.93 234.5C279.5 182.55 253.87 209.19 224.01 194.52C228.01 216.47 241.45 225.9 260.59 228.34C272.14 229.81 276.56 234.92 278.77 247.3C282.5 268.37 289.95 288.76 296.21 310.01C296.46 310.9 296.69 311.78 296.96 312.65Z" fill="#E6E6E6"/>
<path d="M341.97 67.09C315.56 52.41 285.14 44.04 252.75 44.04C215.8 44.04 181.38 54.95 152.53 73.72C152.07 74 151.61 74.32 151.15 74.64C101.5 107.59 68.79 163.95 68.79 228C68.79 295.64 105.32 354.76 159.71 386.74C171.12 388.81 182.9 389.91 194.91 389.91C302.44 389.91 389.91 302.44 389.91 194.96C389.92 146.09 371.84 101.37 341.97 67.09ZM194.92 363.04C175.6 363.04 156.96 359.68 139.61 353.65C131.05 347.67 123.09 340.9 116.05 333.41C102.8 319.33 92.63 302.81 86.05 285.33C84.21 280.41 82.69 275.48 81.45 270.42C78.14 257.49 76.76 244.29 77.26 231.36C77.67 221.51 79.1 211.8 81.59 202.46C83.57 194.78 86.24 187.37 89.5 180.24C104.09 148.63 130.77 125.03 160.91 114.4C175.96 109.06 191.74 106.85 206.88 107.73C222.11 108.56 236.7 112.47 249.86 118.82L273.33 51.09L274.71 47.04C275.31 47.36 275.86 47.64 276.41 48.01C327.99 76.72 363.05 131.84 363.05 194.97C363.05 287.62 287.63 363.04 194.92 363.04Z" fill="#E6E6E6"/>
<path d="M296.18 310.03C295.17 310.81 294.16 311.59 293.1 312.33C268.02 309.94 244.05 299.4 221.14 285.78C219.67 284.9 218.7 282.97 217.92 281.36C204.62 252.33 184.56 231.94 158.66 219.52C168.51 182.34 202.37 154.92 242.63 154.92C254.68 154.92 266.14 157.36 276.54 161.78C276.95 162.88 277.28 164.03 277.51 165.18C266.1 167.85 254.64 170.61 243.14 173.32C243.19 173.73 243.19 174.15 243.19 174.56H287.73C296.06 196.32 289.85 233.32 288.93 234.51C279.5 182.56 253.87 209.2 224.01 194.53C228.01 216.48 241.45 225.91 260.59 228.35C272.14 229.82 276.56 234.93 278.77 247.31C282.47 268.39 289.92 288.77 296.18 310.03Z" fill="#E6E6E6"/>
</svg>
